<?xml version="1.0" encoding="UTF-8" standalone="no"?>

<svg
   width="129.28603mm"
   height="129.28159mm"
   viewBox="0 0 129.28603 129.28159"
   version="1.1"
   id="svg5"
   xmlns="http://www.w3.org/2000/svg"
   xmlns:svg="http://www.w3.org/2000/svg">
  <defs
     id="defs2" />
  <g
     id="layer3"
     style="display:inline"
     transform="translate(-39.092252,-57.854643)">
    <path
       id="path6251"
       style="display:inline;fill:#ffffff;fill-opacity:1;stroke:none;stroke-width:3;stroke-linecap:round;stroke-dasharray:none;stroke-opacity:1;paint-order:markers stroke fill"
       d="m 102.44727,57.861328 c -19.765255,0.4192 -39.185564,10.357579 -50.802125,26.404226 -11.524743,15.585549 -15.522202,36.532056 -10.28427,55.223676 4.788022,17.72838 17.49678,33.17891 34.068318,41.13639 14.580631,7.1302 31.899177,8.51122 47.388567,3.61142 14.21779,-4.37286 26.84969,-13.79464 34.94757,-26.29053 8.27193,-12.59893 12.01219,-28.13973 10.13898,-43.11383 -1.72225,-14.56476 -8.54574,-28.492748 -19.11585,-38.677551 -10.39835,-10.128514 -24.2942,-16.577105 -38.74566,-17.962012 -2.52163,-0.268346 -5.05993,-0.366374 -7.59553,-0.331789 z" />
    <path
       id="path1805-2"
       style="display:inline;fill:#000000;fill-opacity:1;stroke-width:0.262465;stroke-linecap:round"
       d="m 98.872563,89.890943 c -0.636194,0 -1.272268,0.07239 -1.704741,0.217218 -0.0078,0.111627 -0.01603,0.222416 -0.02383,0.334182 -0.103613,1.37888 -0.19929,2.812477 -0.283876,4.29336 0.605895,0.368379 2.243527,0.450056 3.303194,0.243601 0.10253,-1.793252 0.22988,-3.453235 0.39086,-4.878178 -0.43186,-0.139844 -1.056459,-0.210183 -1.681607,-0.210183 z"
       transform="matrix(5.2263257,0,0,0.58761516,-407.07921,32.178699)" />
    <path
       id="path1805-8"
       style="display:inline;fill:#000000;fill-opacity:1;stroke:none;stroke-width:0.263461;stroke-linecap:round"
       d="m 98.872541,89.890602 c -0.599404,0 -1.197626,0.06491 -1.626648,0.193473 -0.0056,0.261451 -0.01091,0.523547 -0.01554,0.787087 -0.03091,1.31955 -0.04891,2.661093 -0.0545,4.004908 0.837189,0.277 2.423275,0.284947 3.307997,0.0255 0.0169,-0.852115 0.0341,-1.700625 0.0529,-2.539784 0.0158,-0.745113 0.0332,-1.496782 0.0524,-2.249573 -0.43265,-0.147521 -1.074529,-0.221615 -1.71661,-0.221615 z"
       transform="matrix(5.1868692,0,0,0.58761516,-406.92499,39.6787)" />
    <path
       id="path1805"
       style="display:inline;fill:#000000;fill-opacity:1;stroke-width:0.268472;stroke-linecap:round"
       d="m 98.872566,89.891145 c -0.583791,0 -1.167036,0.06097 -1.593415,0.182921 0.02551,0.662414 0.05438,1.316605 0.08752,1.957603 0.04745,1.026465 0.105041,2.000824 0.16977,2.937285 0.775679,0.159826 1.88336,0.161044 2.662009,0.0026 0.0856,-1.579472 0.15052,-3.227572 0.20225,-4.915115 -0.419673,-0.110106 -0.973424,-0.165332 -1.528137,-0.165332 z"
       transform="matrix(4.9950613,0,0,0.58761516,-388.15695,47.178698)" />
    <path
       id="path1805-6"
       style="display:inline;fill:#000000;fill-opacity:1;stroke-width:0.459956;stroke-linecap:round"
       d="m 104.89747,124.33815 c -1.63765,0 -3.26991,0.006 -4.83123,0.0186 -1.071844,0.88512 -2.071777,1.84229 -2.864421,2.98638 4.237601,0.0593 9.531161,0.0645 13.977961,0.017 -0.40832,-1.0767 -0.98644,-2.0895 -1.69189,-3.00498 -1.48784,-0.011 -3.03671,-0.0165 -4.59042,-0.0165 z" />
    <path
       style="display:inline;fill:#000000;fill-opacity:1;stroke-width:0.711128;stroke-linecap:round"
       d="m 387.76499,674.96841 c -30.93772,-1.49051 -59.58232,-12.19877 -85.81466,-32.08024 -6.86171,-5.20049 -22.85569,-21.19382 -28.06617,-28.06504 -15.98099,-21.07461 -25.99047,-44.24978 -29.77042,-68.92809 -1.18471,-7.73466 -2.35244,-25.94171 -1.87294,-29.20238 0.36843,-2.5053 1.9198,-4.20197 4.27646,-4.67697 14.06056,-2.83402 262.92816,-2.69195 289.22248,0.16512 2.92482,0.3178 4.53202,0.78888 5.74102,1.68274 1.67681,1.23972 1.68363,1.24016 5.0867,0.33337 7.44003,-1.98248 15.84163,-0.70386 24.43243,3.71832 12.47836,6.42334 19.68431,19.003 18.87154,32.94469 -0.39014,6.69226 -1.36634,10.32763 -4.58179,17.06254 -8.19708,17.1692 -26.76805,32.24444 -49.34779,40.05876 -2.05209,0.71018 -7.27111,2.23752 -11.59784,3.39409 -4.32673,1.15656 -8.80089,2.57939 -9.94258,3.16183 -1.1417,0.58245 -3.71794,2.92257 -5.72499,5.20028 -12.3991,14.07112 -22.94241,23.15859 -37.49534,32.31792 -16.43773,10.3456 -36.15451,17.99267 -54.40803,21.10193 -5.5224,0.94067 -22.01129,2.31564 -24.74535,2.06351 -0.58631,-0.0541 -2.50379,-0.16765 -4.26273,-0.25238 z m 149.95769,-91.60704 c 14.38806,-6.81569 26.07891,-17.76977 29.4861,-27.62785 2.57153,-7.44027 -0.26957,-14.10342 -7.69604,-18.0493 -1.87629,-0.99692 -3.09857,-1.19687 -7.35121,-1.20255 -4.57034,-0.006 -5.30403,0.13176 -7.05562,1.32572 -2.69361,1.83607 -3.83972,4.45837 -5.47456,12.52574 -1.68107,8.29552 -5.29666,21.03313 -7.91819,27.89551 -1.04551,2.73684 -1.90092,5.55513 -1.90092,6.26287 0,1.95479 2.00183,1.66879 7.91044,-1.13014 z"
       id="path1262"
       transform="scale(0.26458333)" />
    <path
       style="display:inline;fill:#000000;fill-opacity:1;stroke-width:0.188153;stroke-linecap:round;paint-order:markers fill stroke"
       d="m 113.17492,133.02244 c -0.50852,-6.09162 -1.05341,-8.20902 -6.13646,-12.58162 -1.56642,-1.30271 -2.02998,-1.2123 -4.93197,0.96184 -5.683784,4.25821 -7.317459,6.4972 -6.800992,9.3209 0.152477,0.83363 0.02463,1.41746 -0.31042,1.41746 -0.409173,0 -1.085709,-0.75566 -1.560729,-1.74327 -1.939319,-4.03201 -0.835996,-7.5394 3.923204,-12.4716 1.861598,-1.92927 2.0657,-2.20353 2.064997,-2.77484 -7.94e-4,-0.63335 -0.343242,-1.099 -2.359682,-3.20852 -2.054963,-2.14982 -3.373545,-3.84105 -4.369477,-5.60433 -2.045139,-3.6209 -2.86054,-6.5733 -2.859521,-10.35373 0.0013,-4.90375 1.496488,-9.293738 4.958119,-14.557618 1.648716,-2.478609 3.112252,-4.984161 4.775618,-7.459165 1.803763,-2.599534 2.349573,-5.449557 1.992963,-8.568663 -0.0843,-0.679435 -0.11695,-1.329915 -0.0726,-1.445514 0.3844,-1.001726 2.80232,2.112285 4.00058,5.152302 0.44782,1.136142 0.60895,2.518019 0.42891,3.678441 -0.396,2.552293 -1.64554,5.030245 -5.5036,10.914203 -1.817908,2.772508 -2.705246,4.432345 -3.354912,6.275641 -1.025517,3.444556 -1.382737,6.650881 -0.556075,9.652111 0.475679,1.712462 1.38036,3.657012 2.381099,5.118012 0.856168,1.24993 4.647418,5.19545 5.596168,5.82387 1.09957,0.72833 1.54457,0.59265 3.5781,-1.09097 1.74468,-1.44447 3.74131,-3.46602 4.43875,-4.49415 3.72278,-6.049222 1.82397,-14.083891 6.75885,-19.204384 0.79947,-0.801431 1.42604,-1.010285 1.26924,-0.423079 -0.93928,4.017072 0.67264,8.306752 0.57871,11.457233 -0.13158,4.52591 -2.15016,9.21098 -4.64004,12.65199 -1.05485,1.43365 -3.38287,3.76825 -4.6657,4.6789 -0.59642,0.42337 -0.95193,0.77448 -0.95193,0.94013 0,0.28539 0.47099,0.87041 2.51545,3.1245 2.76173,2.91493 4.55495,7.10909 3.18296,10.70064 -0.23762,0.58818 -0.7816,1.60357 -1.20884,2.25641 -1.24373,1.90047 -1.913,2.4756 -2.16082,1.85687 z"
       id="path1264" />
    <path
       style="display:inline;fill:#000000;fill-opacity:1;stroke-width:0.711128;stroke-linecap:round"
       d="m 316.50677,479.30951 c -0.0557,-0.21987 -0.12458,-5.43671 -0.15297,-11.59297 1.10369,-24.37328 -16.33742,-40.79253 -26.16289,-61.29619 -8.26267,-17.37805 -8.66012,-29.86006 -1.39162,-43.70502 4.01276,-7.64346 10.62679,-15.23097 12.61259,-14.46894 1.00286,0.38483 1.0041,1.4181 0.006,5.13944 -4.33691,16.96257 6.67878,33.15002 13.60649,42.88347 19.3619,25.47864 24.79176,50.50388 9.38317,74.34973 -4.64804,7.09398 -7.50813,10.23987 -7.90094,8.69048 z"
       id="path1266"
       transform="scale(0.26458333)" />
    <path
       style="display:inline;fill:#000000;fill-opacity:1;stroke-width:0.188153;stroke-linecap:round"
       d="m 130.09877,114.63476 c -0.4822,-0.56881 -1.38862,-2.4812 -1.59516,-3.36554 -0.44666,-1.9124 -0.31878,-4.06122 0.39994,-6.71998 1.09062,-4.03454 1.2528,-4.737952 1.39924,-6.068803 0.34082,-3.82078 -1.11792,-5.796423 -1.77482,-9.415502 -0.26258,-1.510956 -0.22304,-3.864915 0.0709,-4.218464 0.27389,-0.329467 0.45495,-0.141714 1.18448,1.228201 0.33674,0.632328 1.26478,2.153227 2.06231,3.379777 3.00353,4.619244 3.73407,6.571287 3.38866,9.054703 -0.21876,1.572768 -0.81194,3.135198 -2.46187,6.484428 -1.31387,2.65026 -1.93589,4.90864 -2.00223,6.98077 -0.0441,1.43494 -0.12268,2.72731 -0.17465,2.87195 -0.0842,0.23439 -0.13826,0.21138 -0.49677,-0.21154 z"
       id="path1268" />
    <path
       style="display:inline;fill:#000000;fill-opacity:1;stroke-width:0.188153;stroke-linecap:round"
       d="m 127.34393,131.07748 c -0.0797,-0.20973 -0.24055,-1.06651 -0.35736,-1.90396 -0.37665,-2.70049 -0.88909,-3.85707 -2.92011,-6.59072 -2.98069,-4.01185 -3.67332,-5.98402 -2.93488,-8.35665 0.42755,-1.37371 1.74337,-3.38 2.21676,-3.38 0.34764,0 0.51397,0.63753 0.62982,2.41399 -0.0757,1.99472 0.99328,3.51609 1.96457,4.87951 2.95078,4.18268 4.53574,7.74567 2.23295,12.54191 -0.4005,0.80015 -0.63553,0.91202 -0.83175,0.39592 z"
       id="path1270" />
  </g>
</svg>
